<svg width="59" height="61" xmlns="http://www.w3.org/2000/svg">

 <g>
  <title>background</title>
  <rect fill="none" id="canvas_background" height="63" width="61" y="-1" x="-1"/>
 </g>
 <g>
  <title>Layer 1</title>
  <path id="svg_1" fill="#2A7FFF" d="m23.8027,13.6675c-16.43799,8.4439 -26.5749,24.6402 -22.64226,36.1746c3.93287,11.5333 20.44706,14.0387 36.88506,5.5939c5.3746,-2.7609 10.0763,-6.3513 13.8318,-10.3359c-3.4775,3.1591 -7.6257,5.9713 -12.2606,8.1611c-16.1453,7.6268 -32.07081,4.8177 -35.57212,-6.2747c-3.50062,-11.0914 6.74852,-26.2665 22.89312,-33.8933c6.5933,-3.11468 13.1498,-4.48789 18.8386,-4.26861c-6.4574,-0.68544 -14.2236,0.86169 -21.9736,4.84291z" clip-rule="evenodd" fill-rule="evenodd"/>
  <path id="svg_2" fill="#E31F25" d="m46.52,10.0996c-2.4528,-1.823 -8.5177,-5.75213 -15.4748,-7.5859c-6.9867,-1.84148 -20.9959,-1.308 -23.97008,9.0875c-3.59576,12.5659 5.16978,25.4361 20.12558,34.4186c14.9559,8.9828 26.455,5.1902 31.774,-0.4773c-4.6955,6.8308 -16.4577,11.1824 -33.3826,1.7257c-16.92494,-9.4566 -26.20646,-23.975 -22.47206,-36.6856c3.04708,-10.37209 18.09616,-12.34706 27.27106,-9.1894c6.4858,2.23236 12.0039,5.34771 16.1289,8.7064z" clip-rule="evenodd" fill-rule="evenodd"/>
 </g>
</svg>