<svg width="135" height="61" viewBox="0 0 135 61" fill="none" xmlns="http://www.w3.org/2000/svg">
<path fill-rule="evenodd" clip-rule="evenodd" d="M23.8027 13.6675C7.36471 22.1114 -2.7722 38.3077 1.16044 49.8421C5.09331 61.3754 21.6075 63.8808 38.0455 55.436C43.4201 52.6751 48.1218 49.0847 51.8773 45.1001C48.3998 48.2592 44.2516 51.0714 39.6167 53.2612C23.4714 60.888 7.54589 58.0789 4.04458 46.9865C0.543961 35.8951 10.7931 20.72 26.9377 13.0932C33.531 9.97852 40.0875 8.60531 45.7763 8.82459C39.3189 8.13915 31.5527 9.68628 23.8027 13.6675Z" fill="#2A7FFF"/>
<path fill-rule="evenodd" clip-rule="evenodd" d="M46.52 10.0996C44.0672 8.2766 38.0023 4.34747 31.0452 2.5137C24.0585 0.672219 10.0493 1.2057 7.07512 11.6012C3.47936 24.1671 12.2449 37.0373 27.2007 46.0198C42.1566 55.0026 53.6557 51.21 58.9747 45.5425C54.2792 52.3733 42.517 56.7249 25.5921 47.2682C8.66716 37.8116 -0.61436 23.2932 3.12004 10.5826C6.16712 0.210513 21.2162 -1.76446 30.3911 1.3932C36.8769 3.62556 42.395 6.74091 46.52 10.0996Z" fill="#E31F25"/>
<path d="M29.9907 33.274H36.5644V19.8739H41.2418V33.274H44.2505V41.3647H39.9018V37.3193H25.3133V19.8739H29.9907V33.274ZM50.0245 26.9532V37.3193H45.3471V19.8739H48.9879L55.511 27.4083L61.9583 19.8739H65.5738V37.3193H60.8964V26.9785L55.4604 32.92L50.0245 26.9532ZM72.2059 30.0883L80.0184 19.8739H83.7603V37.3193H79.1082V27.206L71.1945 37.3193H67.5537V19.8739H72.2059V30.0883ZM101.816 26.4728C101.816 28.9 101.31 30.6951 100.299 31.8329C99.2876 32.9706 97.7706 33.5268 95.7226 33.5268H90.4131V37.3193H85.7357V19.8739H95.6721C96.734 19.8739 97.6694 20.0003 98.4532 20.2531C99.2117 20.5059 99.8438 20.8852 100.349 21.3909C100.855 21.9218 101.209 22.6045 101.462 23.4388C101.689 24.2732 101.816 25.2845 101.816 26.4728ZM90.4131 23.6158V29.7849H94.5343C95.394 29.7849 96.026 29.5574 96.4559 29.077C96.8857 28.6219 97.1132 27.7875 97.1132 26.5992C97.1132 26.0177 97.0627 25.5373 96.9868 25.1328C96.8857 24.7535 96.7593 24.4501 96.557 24.2226C96.3547 23.995 96.0766 23.8433 95.7479 23.7422C95.394 23.6664 94.9894 23.6158 94.4838 23.6158H90.4131ZM111.593 37.3193V30.6193L106.258 37.3193H103.123V24.6777H107.219V31.4283L112.402 24.6777H115.663V37.3193H111.593ZM133.411 23.9192H127.318V37.3193H122.615V23.9192H116.522V19.8739H133.411V23.9192Z" fill="white"/>
</svg>
